HIERARCHY
ROOT SpineBase
{
  OFFSET 0.000000 0.000000 0.000000
  CHANNELS 6 Xposition Yposition Zposition Zrotation Xrotation Yrotation
  JOINT SpineMid
  {
    OFFSET -0.000000 30.902912 0.000000
    CHANNELS 3 Zrotation Xrotation Yrotation
    JOINT SpineShoulder
    {
      OFFSET -0.134342 22.681192 -0.758357
      CHANNELS 3 Zrotation Xrotation Yrotation
      JOINT Neck
      {
        OFFSET -0.076603 7.445525 -0.577969
        CHANNELS 3 Zrotation Xrotation Yrotation
        JOINT Head
        {
          OFFSET 3.092889 12.773776 -2.088693
          CHANNELS 3 Zrotation Xrotation Yrotation
          End Site
          {
            OFFSET 0 0 0
          }
        }
      }
      JOINT ShoulderLeft
      {
        OFFSET -14.889649 -3.009627 -6.481125
        CHANNELS 3 Zrotation Xrotation Yrotation
        JOINT ElbowLeft
        {
          OFFSET -6.483711 -19.772102 2.699889
          CHANNELS 3 Zrotation Xrotation Yrotation
          JOINT WristLeft
          {
            OFFSET 13.077205 -17.554720 -12.360716
            CHANNELS 3 Zrotation Xrotation Yrotation
            JOINT HandLeft
            {
              OFFSET 2.962522 -4.273526 -0.661345
              CHANNELS 3 Zrotation Xrotation Yrotation
              JOINT HandTipLeft
              {
                OFFSET 6.673725 -4.446068 -1.283352
                CHANNELS 3 Zrotation Xrotation Yrotation
                End Site
                {
                  OFFSET 0 0 0
                }
              }
              JOINT ThumbLeft
              {
                OFFSET -5.853500 -2.064619 -1.024523
                CHANNELS 3 Zrotation Xrotation Yrotation
                End Site
                {
                  OFFSET 0 0 0
                }
              }
            }
          }
        }
      }
      JOINT ShoulderRight
      {
        OFFSET 14.747077 -3.838297 4.979352
        CHANNELS 3 Zrotation Xrotation Yrotation
        JOINT ElbowRight
        {
          OFFSET 2.047802 -22.505166 8.763950
          CHANNELS 3 Zrotation Xrotation Yrotation
          JOINT WristRight
          {
            OFFSET 5.999943 -15.454999 -14.367553
            CHANNELS 3 Zrotation Xrotation Yrotation
            JOINT HandRight
            {
              OFFSET -2.855647 -5.549901 -3.876223
              CHANNELS 3 Zrotation Xrotation Yrotation
              JOINT HandTipRight
              {
                OFFSET -5.094493 -4.254417 -4.309772
                CHANNELS 3 Zrotation Xrotation Yrotation
                End Site
                {
                  OFFSET 0 0 0
                }
              }
              JOINT ThumbRight
              {
                OFFSET 2.793819 -3.607436 -0.607845
                CHANNELS 3 Zrotation Xrotation Yrotation
                End Site
                {
                  OFFSET 0 0 0
                }
              }
            }
          }
        }
      }
    }
  }
  JOINT HipLeft
  {
    OFFSET -6.516923 1.105028 -5.299445
    CHANNELS 3 Zrotation Xrotation Yrotation
    JOINT KneeLeft
    {
      OFFSET -5.803486 -26.193473 -6.722853
      CHANNELS 3 Zrotation Xrotation Yrotation
      JOINT AnkleLeft
      {
        OFFSET -0.856697 -29.493535 5.606134
        CHANNELS 3 Zrotation Xrotation Yrotation
        JOINT FootLeft
        {
          OFFSET 2.587803 -4.880228 -10.795221
          CHANNELS 3 Zrotation Xrotation Yrotation
          End Site
          {
            OFFSET 0 0 0
          }
        }
      }
    }
  }
  JOINT HipRight
  {
    OFFSET 5.916754 -0.620671 -1.481237
    CHANNELS 3 Zrotation Xrotation Yrotation
    JOINT KneeRight
    {
      OFFSET 10.044873 -25.118938 0.389598
      CHANNELS 3 Zrotation Xrotation Yrotation
      JOINT AnkleRight
      {
        OFFSET 1.860156 -31.976268 0.868849
        CHANNELS 3 Zrotation Xrotation Yrotation
        JOINT FootRight
        {
          OFFSET 4.136130 -6.024046 -3.990106
          CHANNELS 3 Zrotation Xrotation Yrotation
          End Site
          {
            OFFSET 0 0 0
          }
        }
      }
    }
  }
}
MOTION
Frames: 9
Frame Time: 0.033333
29.724996 69.245772 357.221188 0.000000 0.000000 -17.070987 -0.000000 0.000000 17.070987 -0.000000 0.000000 0.000000 -0.000000 0.000000 0.000000 0.000000 0.000000 0.000000 -0.000000 0.000000 0.000000 -0.000000 0.000000 0.000000 -0.000000 0.000000 0.000000 -0.000000 0.000000 0.000000 0.000000 0.000000 0.000000 0.000000 0.000000 0.000000 -0.000000 0.000000 0.000000 -0.000000 0.000000 0.000000 -0.000000 0.000000 0.000000 -0.000000 0.000000 0.000000 0.000000 0.000000 0.000000 0.000000 0.000000 0.000000 -0.000000 0.000000 17.070987 -0.000000 0.000000 0.000000 -0.000000 0.000000 0.000000 0.000000 0.000000 0.000000 -0.000000 0.000000 17.070987 -0.000000 0.000000 0.000000 -0.000000 0.000000 0.000000 0.000000 0.000000 0.000000
29.886976 69.209985 357.339514 0.215592 -0.256632 -16.912779 -0.280927 0.182811 16.913710 -0.000000 0.000000 0.000000 -0.000000 0.000000 0.000000 0.000000 0.000000 0.000000 -0.000000 0.000000 0.000000 -1.181213 -0.417746 0.521588 4.580963 -0.441750 -1.601547 -6.282307 -1.231142 -1.067143 0.000000 0.000000 0.000000 0.000000 0.000000 0.000000 -0.000000 0.000000 0.000000 -0.603012 -0.411263 0.400917 0.567349 -0.736862 0.208829 -3.058329 1.100840 2.576162 0.000000 0.000000 0.000000 0.000000 0.000000 0.000000 -0.626650 1.340842 16.649668 -3.371688 0.646661 -0.443235 3.386384 -1.827941 0.749372 0.000000 0.000000 0.000000 -0.280927 0.182811 16.913710 -2.742848 0.378887 -0.043495 1.426691 -1.631630 0.050261 0.000000 0.000000 0.000000
30.029676 69.181607 357.424191 0.412803 -0.456427 -16.781160 -0.527009 0.317793 16.784266 -0.000000 0.000000 0.000000 0.210981 -0.806856 0.231186 0.000000 0.000000 0.000000 -0.000000 0.000000 0.000000 -1.818933 -0.624139 0.818815 7.110741 -0.808869 -2.520156 -10.973987 -2.709184 -2.598364 0.000000 0.000000 0.000000 0.000000 0.000000 0.000000 -0.000000 0.000000 0.000000 -1.144237 -0.773954 0.763304 1.190366 -1.145581 0.169058 -5.055613 1.864256 4.187778 0.000000 0.000000 0.000000 0.000000 0.000000 0.000000 -1.225901 2.290362 16.364548 -5.703437 0.634649 -0.823708 5.859501 -2.637046 1.322463 0.000000 0.000000 0.000000 -0.527009 0.317793 16.784266 -5.041328 0.648118 -0.071027 2.484648 -2.218326 0.693911 0.000000 0.000000 0.000000
30.153097 69.160640 357.475218 0.591536 -0.599169 -16.678612 -0.738629 0.404154 16.684310 -0.000000 0.000000 0.000000 0.241679 -1.132301 0.315727 0.000000 0.000000 0.000000 -0.000000 0.000000 0.000000 -1.926458 -0.615250 0.902621 8.312974 -1.184177 -2.961712 -14.640860 -4.134251 -4.294396 0.000000 0.000000 0.000000 0.000000 0.000000 0.000000 -0.000000 0.000000 0.000000 -1.630412 -1.091432 1.092208 1.863974 -1.337490 -0.055892 -6.322148 2.452446 5.058616 0.000000 0.000000 0.000000 0.000000 0.000000 0.000000 -1.802341 2.833539 16.216530 -7.055890 0.003264 -1.150685 7.450455 -2.484051 1.648318 0.000000 0.000000 0.000000 -0.738629 0.404154 16.684310 -6.896594 0.806656 -0.092426 3.191933 -1.750068 1.961994 0.000000 0.000000 0.000000
30.257240 69.147083 357.492596 0.751697 -0.684675 -16.606993 -0.219120 0.012082 16.626863 -0.545003 0.610606 -0.011704 0.222797 -1.407777 0.379462 0.000000 0.000000 0.000000 -0.293627 0.805726 -0.302286 -1.208657 -1.202629 1.060614 8.495132 -1.615775 -3.016360 -17.439999 -5.357314 -5.941394 0.000000 0.000000 0.000000 0.000000 0.000000 0.000000 -0.000000 0.000000 0.000000 -2.067143 -1.366457 1.391850 2.602889 -1.367033 -0.446518 -7.033895 2.945342 5.305624 0.000000 0.000000 0.000000 0.000000 0.000000 0.000000 -2.357232 2.962112 16.203722 -7.472020 -1.245762 -1.416965 8.183278 -1.387894 1.697225 0.000000 0.000000 0.000000 -1.847289 0.923408 16.906449 -7.556458 0.169466 -0.493496 3.538815 -0.256102 3.852216 0.000000 0.000000 0.000000
30.342103 69.140936 357.476324 0.893207 -0.712788 -16.567474 -0.248690 -0.026478 16.591832 -0.647069 0.667448 -0.013916 0.154258 -1.634374 0.422329 0.000000 0.000000 0.000000 -0.085943 1.233124 -0.415702 0.094908 -1.232467 0.417648 7.249911 -2.035746 -2.310410 -19.387748 -6.307035 -7.381458 0.000000 0.000000 0.000000 0.000000 0.000000 0.000000 -0.000000 0.000000 0.000000 -2.459084 -1.601228 1.665775 3.441223 -1.253852 -1.016506 -7.269862 3.381224 4.960870 0.000000 0.000000 0.000000 0.000000 0.000000 0.000000 -2.888279 2.674329 16.321385 -6.962336 -3.154234 -1.600245 8.063597 0.679243 1.472249 0.000000 0.000000 0.000000 -3.159085 0.550530 16.852559 -7.313224 0.113158 -0.502668 3.489852 2.188499 6.323207 0.000000 0.000000 0.000000
30.448910 69.145154 357.432344 1.073630 -0.666829 -16.305144 -0.273635 -0.097014 16.335152 0.003217 0.208304 0.032572 -0.815670 -1.485151 0.415799 0.000000 0.000000 0.000000 -0.443852 2.034529 -0.526533 0.481202 -0.246205 0.866912 5.800531 -3.611322 -2.630855 -21.004506 -6.805559 -8.213476 0.000000 0.000000 0.000000 0.000000 0.000000 0.000000 -0.786397 0.475575 -0.052910 -2.873691 -2.379684 1.738755 4.886518 -1.085344 -1.597947 -7.370568 4.718520 3.638355 0.000000 0.000000 0.000000 0.000000 0.000000 0.000000 -3.679262 1.828737 16.389722 -3.642705 -4.240897 -1.295573 6.013630 5.030187 1.174006 0.000000 0.000000 0.000000 -4.654915 -0.024219 16.521167 -6.137845 0.193562 -0.429347 0.610454 4.155683 10.079034 0.000000 0.000000 0.000000
30.487356 69.158907 357.324636 1.181924 -0.566239 -16.407089 -0.273242 -0.190730 16.440093 0.051695 0.242234 0.039567 -1.087856 -1.806127 0.447010 0.000000 0.000000 0.000000 -0.361354 2.667238 -0.739358 1.723854 -0.383362 0.473684 3.706048 -3.192590 -1.365795 -22.651285 -8.824525 -11.902805 0.000000 0.000000 0.000000 0.000000 0.000000 0.000000 -0.916982 0.430821 -0.063327 -3.319261 -2.896283 1.945427 7.075315 -1.149166 -2.900409 -7.084385 5.296344 2.355431 0.000000 0.000000 0.000000 0.000000 0.000000 0.000000 -4.295273 0.624798 16.866168 -1.268248 -8.784130 -1.273699 4.115237 9.924970 0.916137 0.000000 0.000000 0.000000 -6.799252 -0.987929 16.454834 -4.079118 0.256124 -0.297036 1.721820 10.632493 13.715237 0.000000 0.000000 0.000000
30.412760 69.169809 357.170903 1.173056 -0.423887 -16.677991 -0.241209 -0.268799 16.710116 0.110005 0.250006 0.043916 -1.431704 -1.862139 0.387970 0.000000 0.000000 0.000000 -0.362078 3.332028 -0.984263 4.643043 -0.421414 -0.733198 0.486536 -4.182659 -0.020083 -22.462018 -8.812545 -12.161180 0.000000 0.000000 0.000000 0.000000 0.000000 0.000000 -1.270144 -0.423739 -0.255035 -3.324847 -1.603237 2.684473 9.021029 -2.764141 -4.071003 -6.652556 7.664254 -0.882685 0.000000 0.000000 0.000000 0.000000 0.000000 0.000000 -4.238780 -0.677009 17.421636 -1.034347 -15.121026 -1.587125 3.518936 13.500333 -0.281653 0.000000 0.000000 0.000000 -8.955743 -2.130161 16.457206 -1.313476 -0.006536 -0.164247 1.490194 18.449788 18.246695 0.000000 0.000000 0.000000
